<svg xmlns="http://www.w3.org/2000/svg" viewBox="0 0 211.6 105.65"><g id="Layer_2" data-name="Layer 2"><g id="Layer_1-2" data-name="Layer 1"><path d="M3.62,66.85,0,60.34c1.37-.92,2.53-1.8,3.77-2.52Q52.65,29.68,101.52,1.51c3.25-1.88,5.65-2.1,9-.12C142.88,20.28,175.32,39,207.72,57.72c1.26.72,2.43,1.6,3.88,2.55-1.2,2.23-2.28,4.21-3.63,6.74-10.27-6-20.17-11.66-30.05-17.41-22.59-13.12-45.19-26.21-67.7-39.45-2.93-1.73-5.11-1.79-8.11-.05Q55.31,37.36,8.34,64.31C6.93,65.12,5.48,65.85,3.62,66.85Z" style="fill:#203f65"/><path d="M176.83,60.35c-1.29,2.31-2.34,4.19-3.71,6.62-7.18-4.1-14.21-8.09-21.21-12.13-13.84-8-27.72-15.91-41.45-24.07-3.08-1.84-5.33-2-8.54-.09C82.38,42.09,62.68,53.24,43,64.46c-1.42.81-2.88,1.54-4.57,2.43L34.73,60.1,66.45,42C78.6,35.1,90.71,28.12,103,21.4c1.54-.85,4.27-1.12,5.69-.32C130.82,33.58,152.88,46.3,175,59,175.51,59.3,176,59.74,176.83,60.35Z" style="fill:#203f65"/><path d="M101.21,89.07c-4.41.91-6.76-.45-6.45-5.67.09-1.52-1.74-3.36-3-4.73-6.48-6.93-7.2-18.3-1.49-25.72a20,20,0,0,1,26-4.82,19.4,19.4,0,0,1,8,24.33c-.89,2.09-2.61,3.82-3.73,5.84-1.35,2.46-2.43,5.06-3.69,7.57-.54,1.07-1.21,2.07-1.83,3.09-.71-1.1-1.9-2.14-2-3.3-.39-3.46-.14-6.42,3.21-9.15,7.17-5.82,7.25-16.18.89-22.55a15.61,15.61,0,1,0-21.1,23c.75.66,2.27,1.16,2.3,1.79.25,5.22,3,7.12,8,6.68.44,0,1.48,1.22,1.36,1.59-.25.79-1,1.84-1.7,2A22.91,22.91,0,0,1,101.21,89.07Z" style="fill:#203f65"/><path d="M106.25,94.09a61.36,61.36,0,0,1,6.92.09c.85.1,1.59,1.21,2.37,1.86-.63.66-1.26,1.87-1.91,1.89q-7.66.25-15.33,0c-.64,0-1.24-1.26-1.85-1.94.79-.65,1.54-1.77,2.39-1.86a73.2,73.2,0,0,1,7.41-.09Z" style="fill:#203f65"/><path d="M97,105.65c3.26-4,14.21-4.11,18.3,0Z" style="fill:#203f65"/></g></g></svg>