<?xml version="1.0" standalone="no"?>
<!DOCTYPE svg PUBLIC "-//W3C//DTD SVG 20010904//EN"
 "http://www.w3.org/TR/2001/REC-SVG-20010904/DTD/svg10.dtd">
<svg version="1.0" xmlns="http://www.w3.org/2000/svg"
 width="365.000000pt" height="242.000000pt" viewBox="0 0 365.000000 242.000000"
 preserveAspectRatio="xMidYMid meet">

<g transform="translate(0.000000,242.000000) scale(0.100000,-0.100000)"
fill="#000000" stroke="none">
<path d="M0 1210 l0 -1210 1825 0 1825 0 0 1210 0 1210 -1825 0 -1825 0 0
-1210z m2022 873 l158 -157 0 77 c0 69 3 81 25 102 22 23 32 25 107 25 134 0
128 12 128 -248 l0 -217 116 -115 c118 -117 150 -164 138 -203 -16 -54 -88
-92 -130 -69 -11 6 -179 170 -374 366 -195 196 -359 356 -365 356 -6 0 -166
-155 -356 -346 -189 -190 -359 -354 -377 -366 -67 -41 -142 4 -142 85 0 40 5
46 393 435 215 217 406 403 422 413 17 10 45 19 64 19 31 0 50 -16 193 -157z
m-224 -471 c3 -82 -1 -87 -85 -91 -58 -3 -83 23 -83 85 0 77 10 85 93 82 l72
-3 3 -73z m200 66 c14 -14 16 -116 3 -137 -10 -15 -103 -22 -138 -9 -21 7 -23
14 -23 71 0 36 5 68 12 75 7 7 39 12 73 12 34 0 66 -5 73 -12z m-223 -198 c25
-10 26 -12 23 -82 l-3 -73 -70 -3 c-84 -4 -95 6 -95 84 0 43 4 56 22 68 25 18
84 21 123 6z m226 -11 c13 -21 11 -123 -3 -137 -7 -7 -39 -12 -73 -12 -34 0
-66 5 -73 12 -13 13 -16 116 -4 134 12 19 35 24 90 20 33 -2 57 -8 63 -17z
m-1656 -384 c30 -29 32 -54 6 -87 -19 -24 -19 -24 0 -36 13 -9 19 -24 19 -52
0 -57 -24 -70 -132 -70 l-88 0 0 135 0 135 85 0 c78 0 88 -2 110 -25z m265 0
c0 -23 -3 -25 -50 -25 -47 0 -50 -2 -50 -25 0 -23 4 -25 45 -25 43 0 45 -1 45
-30 0 -29 -2 -30 -45 -30 -43 0 -45 -1 -45 -30 0 -29 1 -30 50 -30 47 0 50 -2
50 -25 0 -25 -1 -25 -90 -25 l-90 0 0 135 0 135 90 0 c89 0 90 0 90 -25z m240
0 c0 -23 -3 -25 -50 -25 -47 0 -50 -2 -50 -25 0 -23 4 -25 45 -25 43 0 45 -1
45 -30 0 -29 -2 -30 -45 -30 -43 0 -45 -1 -45 -30 0 -29 1 -30 50 -30 47 0 50
-2 50 -25 0 -25 -1 -25 -90 -25 l-90 0 0 135 0 135 90 0 c89 0 90 0 90 -25z
m188 -64 l35 -85 14 30 c7 16 24 55 38 87 24 56 26 57 65 57 l40 0 0 -135 0
-135 -35 0 -34 0 -3 63 -3 62 -25 -62 c-23 -59 -27 -63 -56 -63 -29 0 -33 4
-55 63 l-24 62 -3 -62 -3 -63 -34 0 -35 0 0 136 0 135 42 -3 41 -3 35 -84z
m473 -46 l46 -135 -39 0 c-32 0 -40 4 -48 25 -8 21 -16 25 -54 25 -38 0 -45
-3 -50 -25 -5 -21 -12 -25 -46 -25 -22 0 -40 2 -40 4 0 2 21 63 46 135 l46
131 47 0 46 0 46 -135z m409 117 c64 -34 87 -115 52 -181 -27 -51 -73 -71
-159 -71 l-73 0 0 135 0 135 73 0 c51 0 83 -5 107 -18z m190 -68 c0 -95 10
-124 43 -124 40 0 47 18 47 117 l0 93 40 0 40 0 0 -87 c0 -133 -33 -183 -123
-183 -49 0 -90 21 -105 55 -7 14 -12 68 -12 120 l0 95 35 0 35 0 0 -86z m312
35 l3 -50 39 50 c37 49 40 51 88 51 l50 0 -56 -64 c-31 -35 -56 -66 -56 -69 0
-4 25 -36 55 -72 l56 -65 -50 0 c-47 0 -50 2 -87 51 l-39 50 -3 -50 c-3 -51
-3 -51 -38 -51 l-34 0 0 135 0 135 34 0 c35 0 35 0 38 -51z m430 -84 l47 -135
-40 0 c-33 0 -41 4 -49 25 -8 21 -16 25 -54 25 -38 0 -45 -3 -50 -25 -6 -22
-12 -25 -47 -25 -29 0 -39 4 -36 13 3 6 24 67 47 135 l42 122 46 0 47 0 47
-135z m253 118 c13 -32 85 -243 85 -248 0 -3 -18 -5 -39 -5 -33 0 -40 4 -45
26 -6 23 -10 25 -54 22 -40 -3 -47 -6 -50 -25 -3 -19 -10 -23 -43 -23 -21 0
-39 4 -39 9 0 5 18 60 40 123 22 62 42 119 45 126 7 20 91 16 100 -5z m255
-54 c24 -39 48 -73 53 -76 5 -3 7 29 5 71 l-3 76 38 0 37 0 0 -135 0 -135 -37
0 c-36 0 -40 4 -88 77 l-50 77 -3 -77 -3 -77 -34 0 -35 0 0 135 0 135 38 0
c36 0 40 -3 82 -71z m-2240 -420 c6 13 14 20 17 17 3 -3 -2 -17 -11 -30 -9
-14 -16 -33 -16 -43 0 -10 -9 2 -20 26 -25 54 -25 63 -1 32 l19 -24 12 22z
m148 9 c7 -7 12 -21 12 -33 0 -48 -59 -62 -86 -20 -16 24 -16 27 1 45 20 22
55 26 73 8z m76 -22 c-4 -25 18 -52 36 -41 5 3 10 22 10 41 0 19 5 34 11 34 6
0 9 -15 7 -36 -6 -73 -70 -72 -76 1 -2 23 1 35 7 31 5 -4 8 -17 5 -30z m193
18 c3 -9 1 -24 -5 -34 -8 -13 -7 -21 1 -29 8 -8 8 -11 0 -11 -6 0 -13 7 -17
15 -8 21 -34 19 -39 -2 -3 -10 -5 3 -6 30 -1 46 0 47 29 47 19 0 33 -6 37 -16z
m199 8 c33 -23 12 -82 -30 -82 -28 0 -46 18 -46 45 0 37 44 59 76 37z m112
-25 l22 -32 0 33 c0 17 5 32 10 32 6 0 10 -20 10 -45 0 -53 -10 -57 -42 -12
l-23 32 -6 -35 c-6 -33 -6 -32 -8 13 0 26 2 47 7 47 4 0 17 -15 30 -33z m140
26 c-16 -2 -28 -11 -28 -19 0 -8 11 -15 28 -15 l27 -2 -27 -4 c-16 -2 -28 -10
-28 -18 0 -8 12 -16 28 -18 25 -4 25 -4 -5 -6 -20 0 -33 4 -34 12 0 6 -2 27
-3 45 -2 31 -1 32 33 31 30 -2 32 -3 9 -6z m208 -4 c4 -7 0 -9 -14 -5 -30 10
-35 -9 -6 -23 16 -7 24 -18 22 -29 -4 -20 -46 -29 -62 -12 -8 9 -5 11 13 8 13
-1 26 3 28 10 3 6 -2 12 -9 12 -20 0 -37 20 -31 36 6 17 49 19 59 3z m112 4
c-13 -3 -18 -15 -18 -44 0 -21 -4 -39 -10 -39 -5 0 -10 18 -10 39 0 29 -5 41
-17 44 -10 3 2 5 27 5 25 0 37 -2 28 -5z m130 -5 c28 -28 7 -78 -33 -78 -27 0
-45 18 -45 45 0 27 18 45 45 45 12 0 26 -5 33 -12z m131 -2 c17 -20 3 -46 -25
-46 -15 0 -24 -6 -24 -15 0 -8 -3 -15 -7 -15 -5 0 -8 20 -8 45 0 42 2 45 26
45 15 0 32 -6 38 -14z m-1777 -178 c2 -21 0 -38 -4 -38 -4 0 -8 21 -7 48 1 52
6 48 11 -10z m100 25 l28 -27 0 29 c0 43 15 19 16 -26 1 -48 -15 -50 -41 -6
l-20 32 -3 -32 c-5 -49 -19 -40 -18 12 1 25 3 45 5 45 3 0 18 -12 33 -27z
m158 16 c0 -6 -9 -8 -20 -4 -25 8 -27 -13 -2 -22 24 -9 33 -25 20 -40 -13 -16
-44 -17 -54 -2 -4 7 0 9 14 5 30 -10 37 12 8 24 -25 9 -34 29 -19 43 10 11 53
8 53 -4z m85 -59 c21 -17 35 -3 35 36 0 19 5 34 11 34 6 0 9 -15 7 -36 -6 -74
-72 -72 -74 2 -1 31 -1 33 3 7 2 -17 10 -37 18 -43z m180 49 c4 -12 2 -26 -4
-32 -7 -7 -7 -14 0 -24 8 -9 8 -13 0 -13 -6 0 -14 7 -17 15 -4 8 -12 15 -20
15 -8 0 -14 -7 -14 -15 0 -8 -4 -15 -8 -15 -6 0 -8 68 -3 88 1 1 14 2 30 2 21
0 32 -6 36 -21z m126 -27 c10 -23 14 -42 9 -42 -6 0 -10 5 -10 10 0 14 -43 13
-58 -2 -16 -16 -15 -6 4 42 9 23 21 39 27 37 6 -2 19 -22 28 -45z m107 15 l22
-32 0 33 c0 17 3 32 8 32 4 0 7 -20 8 -45 0 -54 -14 -58 -41 -12 l-20 32 -3
-32 c-5 -49 -18 -40 -16 10 1 23 2 43 3 45 4 9 19 -3 39 -31z m162 23 c0 -5
-9 -9 -21 -7 -12 1 -26 -5 -32 -15 -16 -24 8 -49 42 -43 26 5 26 5 3 -7 -42
-21 -88 34 -56 67 17 17 64 21 64 5z m103 3 c-34 -7 -38 -33 -5 -34 23 -2 24
-2 5 -6 -32 -6 -29 -31 5 -36 22 -3 20 -4 -10 -6 l-38 -1 0 45 c0 44 0 45 33
44 21 -1 25 -3 10 -6z m207 -4 c0 -6 -8 -8 -19 -4 -29 9 -34 -10 -6 -23 28
-13 33 -40 9 -49 -8 -3 -25 0 -37 6 -21 11 -21 11 5 6 36 -7 46 12 14 25 -25
9 -34 29 -19 43 10 11 53 8 53 -4z m134 -11 c13 -19 14 -25 2 -43 -26 -40 -86
-27 -86 19 0 47 57 63 84 24z m99 -61 c18 -4 17 -5 -5 -6 -27 -1 -28 1 -26 47
l1 47 4 -42 c3 -33 8 -43 26 -46z m82 59 c-4 -30 17 -62 33 -52 7 4 12 23 12
42 0 19 5 34 11 34 17 0 6 -72 -13 -84 -27 -17 -52 5 -56 48 -2 20 1 36 6 36
5 0 8 -11 7 -24z m173 17 c-14 -3 -18 -15 -18 -45 0 -47 -13 -44 -15 3 -1 17
-8 35 -16 40 -10 6 -1 8 26 8 22 -1 32 -3 23 -6z m77 -43 c1 -22 -2 -40 -6
-40 -5 0 -9 21 -9 47 0 56 12 50 15 -7z m133 38 c28 -28 7 -78 -33 -78 -27 0
-45 18 -45 45 0 27 18 45 45 45 12 0 26 -5 33 -12z m132 -16 c0 22 3 29 9 20
4 -8 7 -23 6 -35 -1 -12 -3 -29 -4 -37 -1 -10 -12 -3 -31 20 l-30 34 0 -32 c0
-18 -4 -32 -8 -32 -7 0 -8 63 -2 90 0 3 14 -10 30 -28 l30 -32 0 32z m-150
-207 c0 -13 -104 -15 -880 -15 -776 0 -880 2 -880 15 0 13 104 15 880 15 776
0 880 -2 880 -15z"/>
<path d="M1774 2188 c-17 -13 -202 -196 -412 -408 -396 -400 -403 -408 -369
-453 6 -9 25 -19 40 -23 27 -6 50 15 396 360 279 279 373 366 391 366 18 0
111 -87 390 -365 205 -205 374 -365 384 -365 28 0 56 19 67 47 7 20 5 32 -11
57 -10 17 -194 205 -407 419 -419 417 -409 410 -469 365z"/>
<path d="M2216 2075 c-3 -9 -6 -53 -6 -97 l0 -81 100 -101 100 -101 -2 195 -3
195 -91 3 c-77 2 -93 0 -98 -13z"/>
<path d="M1668 1648 c-3 -7 -4 -31 -4 -53 l1 -40 50 0 50 0 3 53 3 52 -49 0
c-31 0 -52 -5 -54 -12z"/>
<path d="M1872 1608 c3 -50 5 -53 32 -56 15 -2 39 -1 52 2 21 6 24 12 24 56
l0 50 -56 0 -55 0 3 -52z"/>
<path d="M1665 1437 c-4 -14 -5 -38 -3 -53 3 -27 6 -29 56 -32 l53 -3 -3 53
-3 53 -47 3 c-43 3 -48 1 -53 -21z"/>
<path d="M1877 1454 c-4 -4 -7 -29 -7 -56 l0 -48 56 0 55 0 -3 53 -3 52 -45 3
c-25 2 -49 0 -53 -4z"/>
<path d="M230 1030 c0 -28 3 -31 28 -28 21 2 27 8 27 28 0 20 -6 26 -27 28
-25 3 -28 0 -28 -28z"/>
<path d="M230 921 c0 -26 4 -31 23 -31 12 0 29 5 37 10 22 14 0 44 -34 48 -23
3 -26 0 -26 -27z"/>
<path d="M1407 993 c-2 -10 -8 -26 -12 -35 -6 -15 -2 -18 20 -18 25 0 27 3 20
28 -9 36 -21 48 -28 25z"/>
<path d="M1810 975 c0 -83 1 -85 24 -85 13 0 35 9 50 21 21 16 26 29 26 64 0
35 -5 48 -26 64 -15 12 -37 21 -50 21 -23 0 -24 -2 -24 -85z"/>
<path d="M2743 975 c-11 -34 -10 -35 14 -35 22 0 24 3 18 28 -10 43 -21 45
-32 7z"/>
<path d="M3047 1005 c-3 -11 -8 -30 -12 -42 -5 -20 -3 -23 19 -23 29 0 29 1
12 50 -11 30 -14 32 -19 15z"/>
<path d="M1212 618 c-16 -16 -15 -33 2 -47 22 -18 48 -2 44 28 -3 28 -27 38
-46 19z"/>
<path d="M1480 610 c0 -23 35 -28 43 -6 7 18 -1 26 -25 26 -11 0 -18 -7 -18
-20z"/>
<path d="M1687 624 c-13 -14 -7 -52 10 -58 25 -10 51 20 37 42 -12 19 -36 27
-47 16z"/>
<path d="M2382 618 c-30 -30 9 -69 44 -43 15 11 17 17 8 32 -14 23 -36 27 -52
11z"/>
<path d="M2520 611 c0 -15 6 -21 21 -21 14 0 19 5 17 17 -5 26 -38 29 -38 4z"/>
<path d="M1260 471 c0 -15 6 -21 21 -21 14 0 19 5 17 17 -5 26 -38 29 -38 4z"/>
<path d="M1405 467 c-4 -10 -5 -21 -1 -24 10 -10 18 4 13 24 -4 17 -4 17 -12
0z"/>
<path d="M2097 484 c-13 -14 -7 -52 10 -58 25 -10 51 20 37 42 -12 19 -36 27
-47 16z"/>
<path d="M2661 477 c-25 -31 20 -71 48 -42 12 12 13 19 5 33 -15 22 -38 26
-53 9z"/>
</g>
</svg>
